<svg version="1.1" xmlns="http://www.w3.org/2000/svg" xmlns:xlink="http://www.w3.org/1999/xlink" width="1187" height="544"><defs><linearGradient id="coPTlEyLavRK" x1="0px" x2="32px" y1="0px" y2="0px" gradientUnits="userSpaceOnUse"><stop offset="0" stop-color="#807f7f"/><stop offset="1" stop-color="#01fd01"/></linearGradient><linearGradient id="awnKkTUZyKaV" x1="0px" x2="32px" y1="0px" y2="0px" gradientUnits="userSpaceOnUse"><stop offset="0" stop-color="#22dc22"/><stop offset="1" stop-color="#807f7f"/></linearGradient><linearGradient id="rZAeVgEfaTBr" x1="0px" x2="32px" y1="0px" y2="0px" gradientUnits="userSpaceOnUse"><stop offset="0" stop-color="#32cc32"/><stop offset="1" stop-color="#807f7f"/></linearGradient><linearGradient id="ltOyKOyWisWC" x1="0px" x2="32px" y1="0px" y2="0px" gradientUnits="userSpaceOnUse"><stop offset="0" stop-color="#01fd01"/><stop offset="1" stop-color="#01fd01"/></linearGradient><linearGradient id="OhdItWcqemRT" x1="0px" x2="32px" y1="0px" y2="0px" gradientUnits="userSpaceOnUse"><stop offset="0" stop-color="#01fd01"/><stop offset="1" stop-color="#01fd01"/></linearGradient><clipPath id="LIWUBXyWnvXO"><path fill="none" stroke="none" d=" M 0 0 L 128 0 L 128 64 L 0 64 L 0 0 Z"/></clipPath><linearGradient id="otOoSvERulSp" x1="0px" x2="176px" y1="0px" y2="0px" gradientUnits="userSpaceOnUse"><stop offset="0" stop-color="#01fd01"/><stop offset="1" stop-color="#817e7e"/></linearGradient><linearGradient id="kqHXGtevQowM" x1="0px" x2="176px" y1="0px" y2="0px" gradientUnits="userSpaceOnUse"><stop offset="0" stop-color="#01fd01"/><stop offset="1" stop-color="#5fa05f"/></linearGradient><clipPath id="pfTaoioJFxCC"><path fill="none" stroke="none" d=" M 0 0 L 128 0 L 128 64 L 0 64 L 0 0 Z"/></clipPath></defs><g><rect fill="#000000" stroke="none" x="0" y="0" width="1187" height="544"/><g transform="scale(1,1) translate(-121,-158)"><path fill="none" stroke="#817e7e" paint-order="fill stroke markers" d=" M 208 480 L 208 409" stroke-linecap="round" stroke-miterlimit="10" stroke-width="3" stroke-dasharray=""/><path fill="none" stroke="#01fd01" paint-order="fill stroke markers" d=" M 208 375 L 208 304" stroke-linecap="round" stroke-miterlimit="10" stroke-width="3" stroke-dasharray=""/><path fill="none" stroke="#808080" paint-order="fill stroke markers" d=" M 224.66 392 A 16.66 16.66 0 1 1 224.6599916700007 391.98334000277663" stroke-linecap="round" stroke-miterlimit="10" stroke-width="3" stroke-dasharray=""/><path fill="none" stroke="#808080" paint-order="fill stroke markers" d=" M 198 392 L 199 390 L 200 388 L 201 386 L 202 385 L 203 385 L 204 385 L 205 386 L 206 388 L 207 390 L 208 392 L 209 394 L 210 396 L 211 398 L 212 399 L 213 399 L 214 399 L 215 398 L 216 396 L 217 394 L 218 392" stroke-linecap="round" stroke-miterlimit="10" stroke-width="3" stroke-dasharray=""/><text fill="#ffffff" stroke="none" font-family="sans-serif" font-size="12px" font-style="normal" font-weight="normal" text-decoration="normal" x="216" y="375" text-anchor="start" dominant-baseline="alphabetic">*</text><text fill="#ffffff" stroke="none" font-family="sans-serif" font-size="12px" font-style="normal" font-weight="normal" text-decoration="normal" x="111" y="398" text-anchor="start" dominant-baseline="alphabetic">127Vrms 60Hz</text><path fill="none" stroke="#01fd01" paint-order="fill stroke markers" d=" M 624 304 L 659 346" stroke-linecap="round" stroke-miterlimit="10" stroke-width="3" stroke-dasharray=""/><path fill="none" stroke="#01fd01" paint-order="fill stroke markers" d=" M 669 358 L 704 400" stroke-linecap="round" stroke-miterlimit="10" stroke-width="3" stroke-dasharray=""/><path fill="#01fd01" stroke="none" paint-order="stroke fill markers" d=" M 665 341 L 653 351 L 669 358 Z"/><path fill="none" stroke="#01fd01" paint-order="fill stroke markers" d=" M 675 353 L 663 363" stroke-linecap="round" stroke-miterlimit="10" stroke-width="3" stroke-dasharray=""/><path fill="none" stroke="#5fa05f" paint-order="fill stroke markers" d=" M 624 480 L 658 446" stroke-linecap="round" stroke-miterlimit="10" stroke-width="3" stroke-dasharray=""/><path fill="none" stroke="#01fd01" paint-order="fill stroke markers" d=" M 670 434 L 704 400" stroke-linecap="round" stroke-miterlimit="10" stroke-width="3" stroke-dasharray=""/><path fill="#5fa05f" stroke="none" paint-order="stroke fill markers" d=" M 652 440 L 664 452 L 670 434 Z"/><path fill="none" stroke="#01fd01" paint-order="fill stroke markers" d=" M 664 428 L 676 440" stroke-linecap="round" stroke-miterlimit="10" stroke-width="3" stroke-dasharray=""/><path fill="none" stroke="#807f7f" paint-order="fill stroke markers" d=" M 544 400 L 578 434" stroke-linecap="round" stroke-miterlimit="10" stroke-width="3" stroke-dasharray=""/><path fill="none" stroke="#5fa05f" paint-order="fill stroke markers" d=" M 590 446 L 624 480" stroke-linecap="round" stroke-miterlimit="10" stroke-width="3" stroke-dasharray=""/><path fill="#807f7f" stroke="none" paint-order="stroke fill markers" d=" M 584 428 L 572 440 L 590 446 Z"/><path fill="none" stroke="#5fa05f" paint-order="fill stroke markers" d=" M 596 440 L 584 452" stroke-linecap="round" stroke-miterlimit="10" stroke-width="3" stroke-dasharray=""/><path fill="none" stroke="#807f7f" paint-order="fill stroke markers" d=" M 544 400 L 579 358" stroke-linecap="round" stroke-miterlimit="10" stroke-width="3" stroke-dasharray=""/><path fill="none" stroke="#01fd01" paint-order="fill stroke markers" d=" M 589 346 L 624 304" stroke-linecap="round" stroke-miterlimit="10" stroke-width="3" stroke-dasharray=""/><path fill="#807f7f" stroke="none" paint-order="stroke fill markers" d=" M 573 353 L 585 363 L 589 346 Z"/><path fill="none" stroke="#01fd01" paint-order="fill stroke markers" d=" M 583 341 L 595 351" stroke-linecap="round" stroke-miterlimit="10" stroke-width="3" stroke-dasharray=""/><path fill="none" stroke="#807f7f" paint-order="fill stroke markers" d=" M 544 400 L 544 592" stroke-linecap="round" stroke-miterlimit="10" stroke-width="3" stroke-dasharray=""/><text fill="#ffffff" stroke="none" font-family="sans-serif" font-size="12px" font-style="normal" font-weight="normal" text-decoration="normal" x="550" y="502" text-anchor="start" dominant-baseline="alphabetic"></text><path fill="none" stroke="#807f7f" paint-order="fill stroke markers" d=" M 736 592 L 736 500" stroke-linecap="round" stroke-miterlimit="10" stroke-width="3" stroke-dasharray=""/><path fill="none" stroke="#807f7f" paint-order="fill stroke markers" d=" M 724 500 L 748 500" stroke-linecap="round" stroke-miterlimit="10" stroke-width="3" stroke-dasharray=""/><path fill="none" stroke="#01fd01" paint-order="fill stroke markers" d=" M 736 400 L 736 492" stroke-linecap="round" stroke-miterlimit="10" stroke-width="3" stroke-dasharray=""/><path fill="none" stroke="#01fd01" paint-order="fill stroke markers" d=" M 724 492 L 748 492" stroke-linecap="round" stroke-miterlimit="10" stroke-width="3" stroke-dasharray=""/><text fill="#ffffff" stroke="none" font-family="sans-serif" font-size="12px" font-style="normal" font-weight="normal" text-decoration="normal" x="750" y="502" text-anchor="start" dominant-baseline="alphabetic">1mF</text><path fill="none" stroke="#807f7f" paint-order="fill stroke markers" d=" M 944 592 L 800 592" stroke-linecap="round" stroke-miterlimit="10" stroke-width="3" stroke-dasharray=""/><text fill="#ffffff" stroke="none" font-family="sans-serif" font-size="12px" font-style="normal" font-weight="normal" text-decoration="normal" x="872" y="586" text-anchor="start" dominant-baseline="alphabetic"></text><path fill="none" stroke="#01fd01" paint-order="fill stroke markers" d=" M 400 304 L 624 304" stroke-linecap="round" stroke-miterlimit="10" stroke-width="3" stroke-dasharray=""/><text fill="#ffffff" stroke="none" font-family="sans-serif" font-size="12px" font-style="normal" font-weight="normal" text-decoration="normal" x="512" y="298" text-anchor="start" dominant-baseline="alphabetic"></text><path fill="none" stroke="#5fa05f" paint-order="fill stroke markers" d=" M 400 480 L 448 480" stroke-linecap="round" stroke-miterlimit="10" stroke-width="3" stroke-dasharray=""/><text fill="#ffffff" stroke="none" font-family="sans-serif" font-size="12px" font-style="normal" font-weight="normal" text-decoration="normal" x="424" y="474" text-anchor="start" dominant-baseline="alphabetic"></text><path fill="none" stroke="#5fa05f" paint-order="fill stroke markers" d=" M 448 480 L 624 480" stroke-linecap="round" stroke-miterlimit="10" stroke-width="3" stroke-dasharray=""/><text fill="#ffffff" stroke="none" font-family="sans-serif" font-size="12px" font-style="normal" font-weight="normal" text-decoration="normal" x="536" y="474" text-anchor="start" dominant-baseline="alphabetic"></text><path fill="none" stroke="#807f7f" paint-order="fill stroke markers" d=" M 944 592 L 944 552" stroke-linecap="round" stroke-miterlimit="10" stroke-width="3" stroke-dasharray=""/><path fill="none" stroke="#01fd01" paint-order="fill stroke markers" d=" M 944 536 L 944 496" stroke-linecap="round" stroke-miterlimit="10" stroke-width="3" stroke-dasharray=""/><path fill="#807f7f" stroke="none" paint-order="stroke fill markers" d=" M 936 552 L 952 552 L 944 536 Z"/><path fill="none" stroke="#01fd01" paint-order="fill stroke markers" d=" M 936 536 L 952 536" stroke-linecap="round" stroke-miterlimit="10" stroke-width="3" stroke-dasharray=""/><path fill="none" stroke="#01fd01" paint-order="fill stroke markers" d=" M 933 544 L 936 536" stroke-linecap="round" stroke-miterlimit="10" stroke-width="3" stroke-dasharray=""/><path fill="none" stroke="#01fd01" paint-order="fill stroke markers" d=" M 955 528 L 952 536" stroke-linecap="round" stroke-miterlimit="10" stroke-width="3" stroke-dasharray=""/><path fill="none" stroke="#807f7f" paint-order="fill stroke markers" d=" M 800 592 L 800 544" stroke-linecap="round" stroke-miterlimit="10" stroke-width="3" stroke-dasharray=""/><path fill="none" stroke="#01fd01" paint-order="fill stroke markers" d=" M 800 512 L 800 464" stroke-linecap="round" stroke-miterlimit="10" stroke-width="3" stroke-dasharray=""/><g transform="matrix(0,-1,1,0,800,544)"><rect fill="none" stroke="url(#coPTlEyLavRK)" x="0" y="-6" width="32" height="12" stroke-linecap="round" stroke-miterlimit="10" stroke-width="3" stroke-dasharray=""/></g><text fill="#ffffff" stroke="none" font-family="sans-serif" font-size="12px" font-style="normal" font-weight="normal" text-decoration="normal" x="810" y="534" text-anchor="start" dominant-baseline="alphabetic">22k</text><path fill="none" stroke="#01fd01" paint-order="fill stroke markers" d=" M 800 400 L 800 420" stroke-linecap="round" stroke-miterlimit="10" stroke-width="3" stroke-dasharray=""/><path fill="none" stroke="#01fd01" paint-order="fill stroke markers" d=" M 800 444 L 800 464" stroke-linecap="round" stroke-miterlimit="10" stroke-width="3" stroke-dasharray=""/><path fill="none" stroke="#808080" paint-order="fill stroke markers" d=" M 811.76 432 A 11.76 11.76 0 1 1 811.7599941200004 431.98824000196" stroke-linecap="round" stroke-miterlimit="10" stroke-width="3" stroke-dasharray=""/><path fill="#8a0000" stroke="none" paint-order="stroke fill markers" d=" M 808 432 A 8 8 0 1 1 807.9999999998873 431.9999575425633 Z"/><path fill="none" stroke="#807f7f" paint-order="fill stroke markers" d=" M 544 592 L 736 592" stroke-linecap="round" stroke-miterlimit="10" stroke-width="3" stroke-dasharray=""/><text fill="#ffffff" stroke="none" font-family="sans-serif" font-size="12px" font-style="normal" font-weight="normal" text-decoration="normal" x="640" y="586" text-anchor="start" dominant-baseline="alphabetic"></text><path fill="none" stroke="#01fd01" paint-order="fill stroke markers" d=" M 704 400 L 736 400" stroke-linecap="round" stroke-miterlimit="10" stroke-width="3" stroke-dasharray=""/><text fill="#ffffff" stroke="none" font-family="sans-serif" font-size="12px" font-style="normal" font-weight="normal" text-decoration="normal" x="720" y="394" text-anchor="start" dominant-baseline="alphabetic"></text><path fill="none" stroke="#01fd01" paint-order="fill stroke markers" d=" M 736 400 L 800 400" stroke-linecap="round" stroke-miterlimit="10" stroke-width="3" stroke-dasharray=""/><text fill="#ffffff" stroke="none" font-family="sans-serif" font-size="12px" font-style="normal" font-weight="normal" text-decoration="normal" x="768" y="394" text-anchor="start" dominant-baseline="alphabetic"></text><path fill="none" stroke="#807f7f" paint-order="fill stroke markers" d=" M 736 592 L 800 592" stroke-linecap="round" stroke-miterlimit="10" stroke-width="3" stroke-dasharray=""/><text fill="#ffffff" stroke="none" font-family="sans-serif" font-size="12px" font-style="normal" font-weight="normal" text-decoration="normal" x="768" y="586" text-anchor="start" dominant-baseline="alphabetic"></text><path fill="none" stroke="#01fd01" paint-order="fill stroke markers" d=" M 944 496 L 1024 496" stroke-linecap="round" stroke-miterlimit="10" stroke-width="3" stroke-dasharray=""/><path fill="none" stroke="#22dc22" paint-order="fill stroke markers" d=" M 1056 496 L 1136 496" stroke-linecap="round" stroke-miterlimit="10" stroke-width="3" stroke-dasharray=""/><path fill="none" stroke="#01fd01" paint-order="fill stroke markers" d=" M 1024 490 L 1024 502" stroke-linecap="round" stroke-miterlimit="10" stroke-width="3" stroke-dasharray=""/><path fill="none" stroke="#01fd01" paint-order="fill stroke markers" d=" M 1024 490 L 1026 490" stroke-linecap="round" stroke-miterlimit="10" stroke-width="3" stroke-dasharray=""/><path fill="none" stroke="#01fd01" paint-order="fill stroke markers" d=" M 1024 502 L 1026 502" stroke-linecap="round" stroke-miterlimit="10" stroke-width="3" stroke-dasharray=""/><path fill="none" stroke="#01fd01" paint-order="fill stroke markers" d=" M 1026 490 L 1028 490" stroke-linecap="round" stroke-miterlimit="10" stroke-width="3" stroke-dasharray=""/><path fill="none" stroke="#01fd01" paint-order="fill stroke markers" d=" M 1026 502 L 1028 502" stroke-linecap="round" stroke-miterlimit="10" stroke-width="3" stroke-dasharray=""/><path fill="none" stroke="#01fd01" paint-order="fill stroke markers" d=" M 1028 490 L 1030 490" stroke-linecap="round" stroke-miterlimit="10" stroke-width="3" stroke-dasharray=""/><path fill="none" stroke="#01fd01" paint-order="fill stroke markers" d=" M 1028 502 L 1030 502" stroke-linecap="round" stroke-miterlimit="10" stroke-width="3" stroke-dasharray=""/><path fill="none" stroke="#01fd01" paint-order="fill stroke markers" d=" M 1030 490 L 1032 490" stroke-linecap="round" stroke-miterlimit="10" stroke-width="3" stroke-dasharray=""/><path fill="none" stroke="#01fd01" paint-order="fill stroke markers" d=" M 1030 502 L 1032 502" stroke-linecap="round" stroke-miterlimit="10" stroke-width="3" stroke-dasharray=""/><path fill="none" stroke="#01fd01" paint-order="fill stroke markers" d=" M 1032 490 L 1034 490" stroke-linecap="round" stroke-miterlimit="10" stroke-width="3" stroke-dasharray=""/><path fill="none" stroke="#01fd01" paint-order="fill stroke markers" d=" M 1032 502 L 1034 502" stroke-linecap="round" stroke-miterlimit="10" stroke-width="3" stroke-dasharray=""/><path fill="none" stroke="#01fd01" paint-order="fill stroke markers" d=" M 1034 490 L 1036 490" stroke-linecap="round" stroke-miterlimit="10" stroke-width="3" stroke-dasharray=""/><path fill="none" stroke="#01fd01" paint-order="fill stroke markers" d=" M 1034 502 L 1036 502" stroke-linecap="round" stroke-miterlimit="10" stroke-width="3" stroke-dasharray=""/><path fill="none" stroke="#01fd01" paint-order="fill stroke markers" d=" M 1036 490 L 1038 490" stroke-linecap="round" stroke-miterlimit="10" stroke-width="3" stroke-dasharray=""/><path fill="none" stroke="#01fd01" paint-order="fill stroke markers" d=" M 1036 502 L 1038 502" stroke-linecap="round" stroke-miterlimit="10" stroke-width="3" stroke-dasharray=""/><path fill="none" stroke="#01fd01" paint-order="fill stroke markers" d=" M 1038 490 L 1040 490" stroke-linecap="round" stroke-miterlimit="10" stroke-width="3" stroke-dasharray=""/><path fill="none" stroke="#01fd01" paint-order="fill stroke markers" d=" M 1038 502 L 1040 502" stroke-linecap="round" stroke-miterlimit="10" stroke-width="3" stroke-dasharray=""/><path fill="none" stroke="#01fd01" paint-order="fill stroke markers" d=" M 1040 490 L 1042 490" stroke-linecap="round" stroke-miterlimit="10" stroke-width="3" stroke-dasharray=""/><path fill="none" stroke="#01fd01" paint-order="fill stroke markers" d=" M 1040 502 L 1042 502" stroke-linecap="round" stroke-miterlimit="10" stroke-width="3" stroke-dasharray=""/><path fill="none" stroke="#01fd01" paint-order="fill stroke markers" d=" M 1042 490 L 1044 490" stroke-linecap="round" stroke-miterlimit="10" stroke-width="3" stroke-dasharray=""/><path fill="none" stroke="#01fd01" paint-order="fill stroke markers" d=" M 1042 502 L 1044 502" stroke-linecap="round" stroke-miterlimit="10" stroke-width="3" stroke-dasharray=""/><path fill="none" stroke="#01fd01" paint-order="fill stroke markers" d=" M 1044 490 L 1046 490" stroke-linecap="round" stroke-miterlimit="10" stroke-width="3" stroke-dasharray=""/><path fill="none" stroke="#01fd01" paint-order="fill stroke markers" d=" M 1044 502 L 1046 502" stroke-linecap="round" stroke-miterlimit="10" stroke-width="3" stroke-dasharray=""/><path fill="none" stroke="#01fd01" paint-order="fill stroke markers" d=" M 1046 490 L 1048 490" stroke-linecap="round" stroke-miterlimit="10" stroke-width="3" stroke-dasharray=""/><path fill="none" stroke="#01fd01" paint-order="fill stroke markers" d=" M 1046 502 L 1048 502" stroke-linecap="round" stroke-miterlimit="10" stroke-width="3" stroke-dasharray=""/><path fill="none" stroke="#01fd01" paint-order="fill stroke markers" d=" M 1048 490 L 1050 490" stroke-linecap="round" stroke-miterlimit="10" stroke-width="3" stroke-dasharray=""/><path fill="none" stroke="#01fd01" paint-order="fill stroke markers" d=" M 1048 502 L 1050 502" stroke-linecap="round" stroke-miterlimit="10" stroke-width="3" stroke-dasharray=""/><path fill="none" stroke="#02fc02" paint-order="fill stroke markers" d=" M 1050 490 L 1052 490" stroke-linecap="round" stroke-miterlimit="10" stroke-width="3" stroke-dasharray=""/><path fill="none" stroke="#02fc02" paint-order="fill stroke markers" d=" M 1050 502 L 1052 502" stroke-linecap="round" stroke-miterlimit="10" stroke-width="3" stroke-dasharray=""/><path fill="none" stroke="#11ed11" paint-order="fill stroke markers" d=" M 1052 490 L 1054 490" stroke-linecap="round" stroke-miterlimit="10" stroke-width="3" stroke-dasharray=""/><path fill="none" stroke="#11ed11" paint-order="fill stroke markers" d=" M 1052 502 L 1054 502" stroke-linecap="round" stroke-miterlimit="10" stroke-width="3" stroke-dasharray=""/><path fill="none" stroke="#21de21" paint-order="fill stroke markers" d=" M 1054 490 L 1056 490" stroke-linecap="round" stroke-miterlimit="10" stroke-width="3" stroke-dasharray=""/><path fill="none" stroke="#21de21" paint-order="fill stroke markers" d=" M 1054 502 L 1056 502" stroke-linecap="round" stroke-miterlimit="10" stroke-width="3" stroke-dasharray=""/><path fill="none" stroke="#21de21" paint-order="fill stroke markers" d=" M 1056 490 L 1056 502" stroke-linecap="round" stroke-miterlimit="10" stroke-width="3" stroke-dasharray=""/><path fill="none" stroke="#21de21" paint-order="fill stroke markers" d=" M 1040 480 L 1055 480" stroke-linecap="round" stroke-miterlimit="10" stroke-width="3" stroke-dasharray=""/><path fill="none" stroke="#21de21" paint-order="fill stroke markers" d=" M 1055 480 L 1055 488" stroke-linecap="round" stroke-miterlimit="10" stroke-width="3" stroke-dasharray=""/><path fill="none" stroke="#21de21" paint-order="fill stroke markers" d=" M 1063 480 L 1055 488" stroke-linecap="round" stroke-miterlimit="10" stroke-width="3" stroke-dasharray=""/><path fill="none" stroke="#21de21" paint-order="fill stroke markers" d=" M 1047 480 L 1055 488" stroke-linecap="round" stroke-miterlimit="10" stroke-width="3" stroke-dasharray=""/><text fill="#ffffff" stroke="none" font-family="sans-serif" font-size="12px" font-style="normal" font-weight="normal" text-decoration="normal" x="1026" y="484" text-anchor="start" dominant-baseline="alphabetic">10k</text><text fill="#ffffff" stroke="none" font-family="sans-serif" font-size="12px" font-style="normal" font-weight="normal" text-decoration="normal" x="1065" y="484" text-anchor="start" dominant-baseline="alphabetic">50</text><path fill="none" stroke="#21de21" paint-order="fill stroke markers" d=" M 1040 480 L 1040 368" stroke-linecap="round" stroke-miterlimit="10" stroke-width="3" stroke-dasharray=""/><text fill="#ffffff" stroke="none" font-family="sans-serif" font-size="12px" font-style="normal" font-weight="normal" text-decoration="normal" x="1046" y="430" text-anchor="start" dominant-baseline="alphabetic"></text><path fill="none" stroke="#21de21" paint-order="fill stroke markers" d=" M 1040 368 L 1184 368" stroke-linecap="round" stroke-miterlimit="10" stroke-width="3" stroke-dasharray=""/><text fill="#ffffff" stroke="none" font-family="sans-serif" font-size="12px" font-style="normal" font-weight="normal" text-decoration="normal" x="1112" y="362" text-anchor="start" dominant-baseline="alphabetic"></text><path fill="none" stroke="#22dc22" paint-order="fill stroke markers" d=" M 1136 496 L 1136 528" stroke-linecap="round" stroke-miterlimit="10" stroke-width="3" stroke-dasharray=""/><path fill="none" stroke="#807f7f" paint-order="fill stroke markers" d=" M 1136 560 L 1136 592" stroke-linecap="round" stroke-miterlimit="10" stroke-width="3" stroke-dasharray=""/><g transform="matrix(0,1,-1,0,1136,528)"><rect fill="none" stroke="url(#awnKkTUZyKaV)" x="0" y="-6" width="32" height="12" stroke-linecap="round" stroke-miterlimit="10" stroke-width="3" stroke-dasharray=""/></g><text fill="#ffffff" stroke="none" font-family="sans-serif" font-size="12px" font-style="normal" font-weight="normal" text-decoration="normal" x="1146" y="550" text-anchor="start" dominant-baseline="alphabetic">5.5k</text><path fill="none" stroke="#807f7f" paint-order="fill stroke markers" d=" M 944 592 L 1136 592" stroke-linecap="round" stroke-miterlimit="10" stroke-width="3" stroke-dasharray=""/><text fill="#ffffff" stroke="none" font-family="sans-serif" font-size="12px" font-style="normal" font-weight="normal" text-decoration="normal" x="1040" y="586" text-anchor="start" dominant-baseline="alphabetic"></text><path fill="none" stroke="#21de21" paint-order="fill stroke markers" d=" M 1184 368 L 1184 448" stroke-linecap="round" stroke-miterlimit="10" stroke-width="3" stroke-dasharray=""/><text fill="#ffffff" stroke="none" font-family="sans-serif" font-size="12px" font-style="normal" font-weight="normal" text-decoration="normal" x="1190" y="414" text-anchor="start" dominant-baseline="alphabetic"></text><path fill="none" stroke="#01fd01" paint-order="fill stroke markers" d=" M 1232 432 L 1219 442" stroke-linecap="round" stroke-miterlimit="10" stroke-width="3" stroke-dasharray=""/><path fill="none" stroke="#32cc32" paint-order="fill stroke markers" d=" M 1232 464 L 1219 454" stroke-linecap="round" stroke-miterlimit="10" stroke-width="3" stroke-dasharray=""/><path fill="#c0c0c0" stroke="none" paint-order="stroke fill markers" d=" M 1232 464 L 1228 456 L 1223 462 Z"/><path fill="none" stroke="#21de21" paint-order="fill stroke markers" d=" M 1184 448 L 1216 448" stroke-linecap="round" stroke-miterlimit="10" stroke-width="3" stroke-dasharray=""/><path fill="#21de21" stroke="none" paint-order="stroke fill markers" d=" M 1216 432 L 1219 432 L 1219 464 L 1216 464 Z"/><path fill="none" stroke="#01fd01" paint-order="fill stroke markers" d=" M 1232 304 L 1232 432" stroke-linecap="round" stroke-miterlimit="10" stroke-width="3" stroke-dasharray=""/><text fill="#ffffff" stroke="none" font-family="sans-serif" font-size="12px" font-style="normal" font-weight="normal" text-decoration="normal" x="1238" y="374" text-anchor="start" dominant-baseline="alphabetic"></text><path fill="none" stroke="#807f7f" paint-order="fill stroke markers" d=" M 1232 592 L 1136 592" stroke-linecap="round" stroke-miterlimit="10" stroke-width="3" stroke-dasharray=""/><text fill="#ffffff" stroke="none" font-family="sans-serif" font-size="12px" font-style="normal" font-weight="normal" text-decoration="normal" x="1184" y="586" text-anchor="start" dominant-baseline="alphabetic"></text><path fill="none" stroke="#32cc32" paint-order="fill stroke markers" d=" M 1232 464 L 1232 512" stroke-linecap="round" stroke-miterlimit="10" stroke-width="3" stroke-dasharray=""/><path fill="none" stroke="#807f7f" paint-order="fill stroke markers" d=" M 1232 544 L 1232 592" stroke-linecap="round" stroke-miterlimit="10" stroke-width="3" stroke-dasharray=""/><g transform="matrix(0,1,-1,0,1232,512)"><rect fill="none" stroke="url(#rZAeVgEfaTBr)" x="0" y="-6" width="32" height="12" stroke-linecap="round" stroke-miterlimit="10" stroke-width="3" stroke-dasharray=""/></g><text fill="#ffffff" stroke="none" font-family="sans-serif" font-size="12px" font-style="normal" font-weight="normal" text-decoration="normal" x="1242" y="534" text-anchor="start" dominant-baseline="alphabetic">120</text><path fill="none" stroke="#01fd01" paint-order="fill stroke markers" d=" M 944 304 L 1072 304" stroke-linecap="round" stroke-miterlimit="10" stroke-width="3" stroke-dasharray=""/><path fill="none" stroke="#01fd01" paint-order="fill stroke markers" d=" M 1104 304 L 1232 304" stroke-linecap="round" stroke-miterlimit="10" stroke-width="3" stroke-dasharray=""/><g transform="matrix(1,0,0,1,1072,304)"><rect fill="none" stroke="url(#ltOyKOyWisWC)" x="0" y="-6" width="32" height="12" stroke-linecap="round" stroke-miterlimit="10" stroke-width="3" stroke-dasharray=""/></g><text fill="#ffffff" stroke="none" font-family="sans-serif" font-size="12px" font-style="normal" font-weight="normal" text-decoration="normal" x="1078" y="294" text-anchor="start" dominant-baseline="alphabetic">100</text><path fill="none" stroke="#01fd01" paint-order="fill stroke markers" d=" M 800 400 L 944 400" stroke-linecap="round" stroke-miterlimit="10" stroke-width="3" stroke-dasharray=""/><text fill="#ffffff" stroke="none" font-family="sans-serif" font-size="12px" font-style="normal" font-weight="normal" text-decoration="normal" x="872" y="394" text-anchor="start" dominant-baseline="alphabetic"></text><path fill="none" stroke="#01fd01" paint-order="fill stroke markers" d=" M 944 496 L 944 464" stroke-linecap="round" stroke-miterlimit="10" stroke-width="3" stroke-dasharray=""/><path fill="none" stroke="#01fd01" paint-order="fill stroke markers" d=" M 944 432 L 944 400" stroke-linecap="round" stroke-miterlimit="10" stroke-width="3" stroke-dasharray=""/><g transform="matrix(0,-1,1,0,944,464)"><rect fill="none" stroke="url(#OhdItWcqemRT)" x="0" y="-6" width="32" height="12" stroke-linecap="round" stroke-miterlimit="10" stroke-width="3" stroke-dasharray=""/></g><text fill="#ffffff" stroke="none" font-family="sans-serif" font-size="12px" font-style="normal" font-weight="normal" text-decoration="normal" x="954" y="454" text-anchor="start" dominant-baseline="alphabetic">1k</text><path fill="none" stroke="#01fd01" paint-order="fill stroke markers" d=" M 944 400 L 944 304" stroke-linecap="round" stroke-miterlimit="10" stroke-width="3" stroke-dasharray=""/><text fill="#ffffff" stroke="none" font-family="sans-serif" font-size="12px" font-style="normal" font-weight="normal" text-decoration="normal" x="950" y="358" text-anchor="start" dominant-baseline="alphabetic"></text><g transform="scale(1,1) translate(121,158)"><g transform="translate(759,50)" clip-path="url(#LIWUBXyWnvXO)"><g><path fill="none" stroke="#A0A0A0" paint-order="fill stroke markers" d=" M 0 59 L 127 59" stroke-linecap="round" stroke-miterlimit="10" stroke-dasharray=""/><path fill="none" stroke="#404040" paint-order="fill stroke markers" d=" M 0 31 L 127 31" stroke-linecap="round" stroke-miterlimit="10" stroke-dasharray=""/><path fill="none" stroke="#404040" paint-order="fill stroke markers" d=" M 0 3 L 127 3" stroke-linecap="round" stroke-miterlimit="10" stroke-dasharray=""/><path fill="none" stroke="#404040" paint-order="fill stroke markers" d=" M 109 0 L 109 63" stroke-linecap="round" stroke-miterlimit="10" stroke-dasharray=""/><path fill="none" stroke="#404040" paint-order="fill stroke markers" d=" M 78 0 L 78 63" stroke-linecap="round" stroke-miterlimit="10" stroke-dasharray=""/><path fill="none" stroke="#404040" paint-order="fill stroke markers" d=" M 46 0 L 46 63" stroke-linecap="round" stroke-miterlimit="10" stroke-dasharray=""/><path fill="none" stroke="#A0A0A0" paint-order="fill stroke markers" d=" M 15 0 L 15 63" stroke-linecap="round" stroke-miterlimit="10" stroke-dasharray=""/><path fill="none" stroke="#00ff00" paint-order="fill stroke markers" d=" M 0 42 L 127 42" stroke-linecap="round" stroke-miterlimit="10" stroke-dasharray=""/><text fill="#ffffff" stroke="none" font-family="sans-serif" font-size="12px" font-style="normal" font-weight="normal" text-decoration="normal" x="0" y="10" text-anchor="start" dominant-baseline="alphabetic">Max=3.078 V</text><text fill="#ffffff" stroke="none" font-family="sans-serif" font-size="12px" font-style="normal" font-weight="normal" text-decoration="normal" x="0" y="25" text-anchor="start" dominant-baseline="alphabetic">Phone voltage</text></g></g></g><path fill="none" stroke="#01fd01" paint-order="fill stroke markers" d=" M 208 304 L 295 304" stroke-linecap="round" stroke-miterlimit="10" stroke-width="3" stroke-dasharray=""/><path fill="none" stroke="#01fd01" paint-order="fill stroke markers" d=" M 400 304 L 313 304" stroke-linecap="round" stroke-miterlimit="10" stroke-width="3" stroke-dasharray=""/><path fill="none" stroke="#817e7e" paint-order="fill stroke markers" d=" M 208 480 L 295 480" stroke-linecap="round" stroke-miterlimit="10" stroke-width="3" stroke-dasharray=""/><path fill="none" stroke="#5fa05f" paint-order="fill stroke markers" d=" M 400 480 L 313 480" stroke-linecap="round" stroke-miterlimit="10" stroke-width="3" stroke-dasharray=""/><g transform="matrix(0,1,-1,0,295,304) scale(1,1)"><path fill="none" stroke="url(#otOoSvERulSp)" paint-order="fill stroke markers" d=" M 0 0 L 0 6.735557395310443e-16 A 5.5 5.5 0 0 1 11 0 L 11 0" stroke-linecap="round" stroke-miterlimit="10" stroke-width="3" stroke-dasharray=""/><path fill="none" stroke="url(#otOoSvERulSp)" paint-order="fill stroke markers" d=" M 11 0 L 11 6.735557395310443e-16 A 5.5 5.5 0 0 1 22 0 L 22 0" stroke-linecap="round" stroke-miterlimit="10" stroke-width="3" stroke-dasharray=""/><path fill="none" stroke="url(#otOoSvERulSp)" paint-order="fill stroke markers" d=" M 22 0 L 22 6.735557395310443e-16 A 5.5 5.5 0 0 1 33 0 L 33 0" stroke-linecap="round" stroke-miterlimit="10" stroke-width="3" stroke-dasharray=""/><path fill="none" stroke="url(#otOoSvERulSp)" paint-order="fill stroke markers" d=" M 33 0 L 33 6.735557395310443e-16 A 5.5 5.5 0 0 1 44 0 L 44 0" stroke-linecap="round" stroke-miterlimit="10" stroke-width="3" stroke-dasharray=""/><path fill="none" stroke="url(#otOoSvERulSp)" paint-order="fill stroke markers" d=" M 44 0 L 44 6.735557395310443e-16 A 5.5 5.5 0 0 1 55 0 L 55 0" stroke-linecap="round" stroke-miterlimit="10" stroke-width="3" stroke-dasharray=""/><path fill="none" stroke="url(#otOoSvERulSp)" paint-order="fill stroke markers" d=" M 55 0 L 55 6.735557395310443e-16 A 5.5 5.5 0 0 1 66 0 L 66 0" stroke-linecap="round" stroke-miterlimit="10" stroke-width="3" stroke-dasharray=""/><path fill="none" stroke="url(#otOoSvERulSp)" paint-order="fill stroke markers" d=" M 66 0 L 66 6.735557395310443e-16 A 5.5 5.5 0 0 1 77 0 L 77 0" stroke-linecap="round" stroke-miterlimit="10" stroke-width="3" stroke-dasharray=""/><path fill="none" stroke="url(#otOoSvERulSp)" paint-order="fill stroke markers" d=" M 77 0 L 77 6.735557395310443e-16 A 5.5 5.5 0 0 1 88 0 L 88 0" stroke-linecap="round" stroke-miterlimit="10" stroke-width="3" stroke-dasharray=""/><path fill="none" stroke="url(#otOoSvERulSp)" paint-order="fill stroke markers" d=" M 88 0 L 88 6.735557395310443e-16 A 5.5 5.5 0 0 1 99 0 L 99 0" stroke-linecap="round" stroke-miterlimit="10" stroke-width="3" stroke-dasharray=""/><path fill="none" stroke="url(#otOoSvERulSp)" paint-order="fill stroke markers" d=" M 99 0 L 99 6.735557395310443e-16 A 5.5 5.5 0 0 1 110 0 L 110 0" stroke-linecap="round" stroke-miterlimit="10" stroke-width="3" stroke-dasharray=""/><path fill="none" stroke="url(#otOoSvERulSp)" paint-order="fill stroke markers" d=" M 110 0 L 110 6.735557395310443e-16 A 5.5 5.5 0 0 1 121 0 L 121 0" stroke-linecap="round" stroke-miterlimit="10" stroke-width="3" stroke-dasharray=""/><path fill="none" stroke="url(#otOoSvERulSp)" paint-order="fill stroke markers" d=" M 121 0 L 121 6.735557395310443e-16 A 5.5 5.5 0 0 1 132 0 L 132 0" stroke-linecap="round" stroke-miterlimit="10" stroke-width="3" stroke-dasharray=""/><path fill="none" stroke="url(#otOoSvERulSp)" paint-order="fill stroke markers" d=" M 132 0 L 132 6.735557395310443e-16 A 5.5 5.5 0 0 1 143 0 L 143 0" stroke-linecap="round" stroke-miterlimit="10" stroke-width="3" stroke-dasharray=""/><path fill="none" stroke="url(#otOoSvERulSp)" paint-order="fill stroke markers" d=" M 143 0 L 143 6.735557395310443e-16 A 5.5 5.5 0 0 1 154 0 L 154 0" stroke-linecap="round" stroke-miterlimit="10" stroke-width="3" stroke-dasharray=""/><path fill="none" stroke="url(#otOoSvERulSp)" paint-order="fill stroke markers" d=" M 154 0 L 154 6.735557395310443e-16 A 5.5 5.5 0 0 1 165 0 L 165 0" stroke-linecap="round" stroke-miterlimit="10" stroke-width="3" stroke-dasharray=""/><path fill="none" stroke="url(#otOoSvERulSp)" paint-order="fill stroke markers" d=" M 165 0 L 165 6.735557395310443e-16 A 5.5 5.5 0 0 1 176 0 L 176 0" stroke-linecap="round" stroke-miterlimit="10" stroke-width="3" stroke-dasharray=""/></g><g transform="matrix(0,1,-1,0,313,304) scale(1,-1)"><path fill="none" stroke="url(#kqHXGtevQowM)" paint-order="fill stroke markers" d=" M 0 0 L 0 6.735557395310443e-16 A 5.5 5.5 0 0 1 11 0 L 11 0" stroke-linecap="round" stroke-miterlimit="10" stroke-width="3" stroke-dasharray=""/><path fill="none" stroke="url(#kqHXGtevQowM)" paint-order="fill stroke markers" d=" M 11 0 L 11 6.735557395310443e-16 A 5.5 5.5 0 0 1 22 0 L 22 0" stroke-linecap="round" stroke-miterlimit="10" stroke-width="3" stroke-dasharray=""/><path fill="none" stroke="url(#kqHXGtevQowM)" paint-order="fill stroke markers" d=" M 22 0 L 22 6.735557395310443e-16 A 5.5 5.5 0 0 1 33 0 L 33 0" stroke-linecap="round" stroke-miterlimit="10" stroke-width="3" stroke-dasharray=""/><path fill="none" stroke="url(#kqHXGtevQowM)" paint-order="fill stroke markers" d=" M 33 0 L 33 6.735557395310443e-16 A 5.5 5.5 0 0 1 44 0 L 44 0" stroke-linecap="round" stroke-miterlimit="10" stroke-width="3" stroke-dasharray=""/><path fill="none" stroke="url(#kqHXGtevQowM)" paint-order="fill stroke markers" d=" M 44 0 L 44 6.735557395310443e-16 A 5.5 5.5 0 0 1 55 0 L 55 0" stroke-linecap="round" stroke-miterlimit="10" stroke-width="3" stroke-dasharray=""/><path fill="none" stroke="url(#kqHXGtevQowM)" paint-order="fill stroke markers" d=" M 55 0 L 55 6.735557395310443e-16 A 5.5 5.5 0 0 1 66 0 L 66 0" stroke-linecap="round" stroke-miterlimit="10" stroke-width="3" stroke-dasharray=""/><path fill="none" stroke="url(#kqHXGtevQowM)" paint-order="fill stroke markers" d=" M 66 0 L 66 6.735557395310443e-16 A 5.5 5.5 0 0 1 77 0 L 77 0" stroke-linecap="round" stroke-miterlimit="10" stroke-width="3" stroke-dasharray=""/><path fill="none" stroke="url(#kqHXGtevQowM)" paint-order="fill stroke markers" d=" M 77 0 L 77 6.735557395310443e-16 A 5.5 5.5 0 0 1 88 0 L 88 0" stroke-linecap="round" stroke-miterlimit="10" stroke-width="3" stroke-dasharray=""/><path fill="none" stroke="url(#kqHXGtevQowM)" paint-order="fill stroke markers" d=" M 88 0 L 88 6.735557395310443e-16 A 5.5 5.5 0 0 1 99 0 L 99 0" stroke-linecap="round" stroke-miterlimit="10" stroke-width="3" stroke-dasharray=""/><path fill="none" stroke="url(#kqHXGtevQowM)" paint-order="fill stroke markers" d=" M 99 0 L 99 6.735557395310443e-16 A 5.5 5.5 0 0 1 110 0 L 110 0" stroke-linecap="round" stroke-miterlimit="10" stroke-width="3" stroke-dasharray=""/><path fill="none" stroke="url(#kqHXGtevQowM)" paint-order="fill stroke markers" d=" M 110 0 L 110 6.735557395310443e-16 A 5.5 5.5 0 0 1 121 0 L 121 0" stroke-linecap="round" stroke-miterlimit="10" stroke-width="3" stroke-dasharray=""/><path fill="none" stroke="url(#kqHXGtevQowM)" paint-order="fill stroke markers" d=" M 121 0 L 121 6.735557395310443e-16 A 5.5 5.5 0 0 1 132 0 L 132 0" stroke-linecap="round" stroke-miterlimit="10" stroke-width="3" stroke-dasharray=""/><path fill="none" stroke="url(#kqHXGtevQowM)" paint-order="fill stroke markers" d=" M 132 0 L 132 6.735557395310443e-16 A 5.5 5.5 0 0 1 143 0 L 143 0" stroke-linecap="round" stroke-miterlimit="10" stroke-width="3" stroke-dasharray=""/><path fill="none" stroke="url(#kqHXGtevQowM)" paint-order="fill stroke markers" d=" M 143 0 L 143 6.735557395310443e-16 A 5.5 5.5 0 0 1 154 0 L 154 0" stroke-linecap="round" stroke-miterlimit="10" stroke-width="3" stroke-dasharray=""/><path fill="none" stroke="url(#kqHXGtevQowM)" paint-order="fill stroke markers" d=" M 154 0 L 154 6.735557395310443e-16 A 5.5 5.5 0 0 1 165 0 L 165 0" stroke-linecap="round" stroke-miterlimit="10" stroke-width="3" stroke-dasharray=""/><path fill="none" stroke="url(#kqHXGtevQowM)" paint-order="fill stroke markers" d=" M 165 0 L 165 6.735557395310443e-16 A 5.5 5.5 0 0 1 176 0 L 176 0" stroke-linecap="round" stroke-miterlimit="10" stroke-width="3" stroke-dasharray=""/></g><path fill="none" stroke="#c0c0c0" paint-order="fill stroke markers" d=" M 303 304 L 303 480" stroke-linecap="round" stroke-miterlimit="10" stroke-width="3" stroke-dasharray=""/><path fill="none" stroke="#c0c0c0" paint-order="fill stroke markers" d=" M 305 304 L 305 480" stroke-linecap="round" stroke-miterlimit="10" stroke-width="3" stroke-dasharray=""/><path fill="none" stroke="#807f7f" paint-order="fill stroke markers" d=" M 544 592 L 544 640" stroke-linecap="round" stroke-miterlimit="10" stroke-width="3" stroke-dasharray=""/><path fill="none" stroke="#807f7f" paint-order="fill stroke markers" d=" M 554 640 L 534 640" stroke-linecap="round" stroke-miterlimit="10" stroke-width="3" stroke-dasharray=""/><path fill="none" stroke="#807f7f" paint-order="fill stroke markers" d=" M 550 645 L 538 645" stroke-linecap="round" stroke-miterlimit="10" stroke-width="3" stroke-dasharray=""/><path fill="none" stroke="#807f7f" paint-order="fill stroke markers" d=" M 546 650 L 542 650" stroke-linecap="round" stroke-miterlimit="10" stroke-width="3" stroke-dasharray=""/><g transform="scale(1,1) translate(121,158)"><g transform="translate(439,50)" clip-path="url(#pfTaoioJFxCC)"><g><path fill="none" stroke="#404040" paint-order="fill stroke markers" d=" M 0 59 L 127 59" stroke-linecap="round" stroke-miterlimit="10" stroke-dasharray=""/><path fill="none" stroke="#A0A0A0" paint-order="fill stroke markers" d=" M 0 31 L 127 31" stroke-linecap="round" stroke-miterlimit="10" stroke-dasharray=""/><path fill="none" stroke="#404040" paint-order="fill stroke markers" d=" M 0 3 L 127 3" stroke-linecap="round" stroke-miterlimit="10" stroke-dasharray=""/><path fill="none" stroke="#404040" paint-order="fill stroke markers" d=" M 109 0 L 109 63" stroke-linecap="round" stroke-miterlimit="10" stroke-dasharray=""/><path fill="none" stroke="#404040" paint-order="fill stroke markers" d=" M 78 0 L 78 63" stroke-linecap="round" stroke-miterlimit="10" stroke-dasharray=""/><path fill="none" stroke="#404040" paint-order="fill stroke markers" d=" M 46 0 L 46 63" stroke-linecap="round" stroke-miterlimit="10" stroke-dasharray=""/><path fill="none" stroke="#A0A0A0" paint-order="fill stroke markers" d=" M 15 0 L 15 63" stroke-linecap="round" stroke-miterlimit="10" stroke-dasharray=""/><path fill="none" stroke="#00ff00" paint-order="fill stroke markers" d=" M 0 49 L 127 49" stroke-linecap="round" stroke-miterlimit="10" stroke-dasharray=""/><text fill="#ffffff" stroke="none" font-family="sans-serif" font-size="12px" font-style="normal" font-weight="normal" text-decoration="normal" x="0" y="10" text-anchor="start" dominant-baseline="alphabetic">Max=-13.018 V</text><text fill="#ffffff" stroke="none" font-family="sans-serif" font-size="12px" font-style="normal" font-weight="normal" text-decoration="normal" x="0" y="25" text-anchor="start" dominant-baseline="alphabetic">Voltage filtered by the Zener</text></g></g></g><path fill="#ffffff" stroke="none" paint-order="stroke fill markers" d=" M 627 304 A 3 3 0 1 1 626.9999999999577 303.99998407846124 Z"/><path fill="#ffffff" stroke="none" paint-order="stroke fill markers" d=" M 707 400 A 3 3 0 1 1 706.9999999999577 399.99998407846124 Z"/><path fill="#ffffff" stroke="none" paint-order="stroke fill markers" d=" M 627 480 A 3 3 0 1 1 626.9999999999577 479.99998407846124 Z"/><path fill="#ffffff" stroke="none" paint-order="stroke fill markers" d=" M 547 400 A 3 3 0 1 1 546.9999999999577 399.99998407846124 Z"/><path fill="#ffffff" stroke="none" paint-order="stroke fill markers" d=" M 547 592 A 3 3 0 1 1 546.9999999999577 591.9999840784612 Z"/><path fill="#ffffff" stroke="none" paint-order="stroke fill markers" d=" M 739 592 A 3 3 0 1 1 738.9999999999577 591.9999840784612 Z"/><path fill="#ffffff" stroke="none" paint-order="stroke fill markers" d=" M 739 400 A 3 3 0 1 1 738.9999999999577 399.99998407846124 Z"/><path fill="#ffffff" stroke="none" paint-order="stroke fill markers" d=" M 947 592 A 3 3 0 1 1 946.9999999999577 591.9999840784612 Z"/><path fill="#ffffff" stroke="none" paint-order="stroke fill markers" d=" M 803 592 A 3 3 0 1 1 802.9999999999577 591.9999840784612 Z"/><path fill="#ffffff" stroke="none" paint-order="stroke fill markers" d=" M 947 496 A 3 3 0 1 1 946.9999999999577 495.99998407846124 Z"/><path fill="#ffffff" stroke="none" paint-order="stroke fill markers" d=" M 803 400 A 3 3 0 1 1 802.9999999999577 399.99998407846124 Z"/><path fill="#ffffff" stroke="none" paint-order="stroke fill markers" d=" M 1139 592 A 3 3 0 1 1 1138.9999999999577 591.9999840784612 Z"/><path fill="#ffffff" stroke="none" paint-order="stroke fill markers" d=" M 947 400 A 3 3 0 1 1 946.9999999999577 399.99998407846124 Z"/></g></g></svg>